<?xml version="1.0" encoding="utf-8"?>
<!-- Generator: Adobe Illustrator 16.0.0, SVG Export Plug-In . SVG Version: 6.00 Build 0)  -->
<!DOCTYPE svg PUBLIC "-//W3C//DTD SVG 1.1//EN" "http://www.w3.org/Graphics/SVG/1.1/DTD/svg11.dtd">
<svg version="1.1" id="Layer_1" xmlns="http://www.w3.org/2000/svg" xmlns:xlink="http://www.w3.org/1999/xlink" x="0px" y="0px"
	 width="841.89px" height="595.28px" viewBox="0 0 841.89 595.28" enable-background="new 0 0 841.89 595.28" xml:space="preserve">
<g>
	<defs>
		<rect id="SVGID_1_" width="841.89" height="595.28"/>
	</defs>
	<clipPath id="SVGID_2_">
		<use xlink:href="#SVGID_1_"  overflow="visible"/>
	</clipPath>
	<path clip-path="url(#SVGID_2_)" fill="#FFFFFF" d="M530.199,33.431v59.521c0,10.994-4.027,15.822-12.873,15.822h-6.973v18.497
		h6.973c8.846,0,12.873,4.83,12.873,16.092v59.252c0,22.791,11.257,31.909,38.339,31.909h7.508v-17.972
		c-19.307,0-26.813-5.895-26.813-19.84v-52.28c0-15.546-4.288-23.057-15.551-26.277c11.263-3.484,15.551-10.989,15.551-26.542
		V39.598c0-13.94,7.507-20.105,26.813-20.105V1.529h-7.508C541.456,1.529,530.199,10.64,530.199,33.431"/>
	<path clip-path="url(#SVGID_2_)" fill="#FFFFFF" d="M837.06,108.774c-8.853,0-12.872-4.829-12.872-15.821V33.429
		c0-22.791-11.264-31.9-38.34-31.9h-7.51v17.962c19.307,0,26.812,6.166,26.812,20.104v52.02c0,15.552,4.292,23.054,15.553,26.539
		c-11.261,3.221-15.553,10.731-15.553,26.277v52.283c0,12.398-5.935,18.435-20.819,19.619c-1.041,0.083-27.905,0.142-51.707,0.178
		c-0.382,0-0.744,0-1.124,0.002c-2.421,0.109-4.828,0.964-6.71,2.78l-15.749,15.231l-53.282,51.524v-37.784
		c0-5.679-4.607-10.295-10.29-10.295c-5.689,0-10.295,4.616-10.295,10.295v62.056c0,0.458,0.204,0.851,0.264,1.297
		c0.109,0.864,0.184,1.733,0.517,2.554c0.323,0.802,0.863,1.454,1.368,2.141c0.277,0.378,0.414,0.819,0.746,1.166
		c0.021,0.023,0.054,0.029,0.074,0.051c0.947,0.968,2.076,1.75,3.344,2.284c1.271,0.529,2.624,0.804,3.982,0.804
		c1.326,0,2.645-0.276,3.894-0.788c0.683-0.279,1.226-0.765,1.828-1.18c0.472-0.323,1.004-0.515,1.429-0.928l86.041-83.196h47.188
		c27.076,0,38.34-9.119,38.34-31.909v-59.252c0-11.265,4.02-16.092,12.872-16.092h6.97v-18.496H837.06z"/>
	<path clip-path="url(#SVGID_2_)" fill="#FFFFFF" d="M613.9,103.385c-8.579,0-15.533,6.958-15.533,15.537
		c0,8.574,6.954,15.531,15.533,15.531c8.576,0,15.535-6.955,15.535-15.531C629.436,110.342,622.477,103.385,613.9,103.385"/>
	<path clip-path="url(#SVGID_2_)" fill="#FFFFFF" d="M679.141,134.453c8.578,0,15.537-6.956,15.537-15.531
		c0-8.58-6.959-15.536-15.537-15.536c-8.579,0-15.533,6.956-15.533,15.536C663.607,127.495,670.562,134.453,679.141,134.453"/>
	<path clip-path="url(#SVGID_2_)" fill="#FFFFFF" d="M744.081,134.453c8.58,0,15.538-6.956,15.538-15.531
		c0-8.58-6.958-15.536-15.538-15.536c-8.575,0-15.531,6.956-15.531,15.536C728.55,127.495,735.506,134.453,744.081,134.453"/>
	<path clip-path="url(#SVGID_2_)" fill="#FFFFFF" d="M160.944,325.025c0-47.841-34.962-80.505-85.567-80.505H6.139v161.016h67.626
		C125.52,405.536,160.944,372.642,160.944,325.025 M76.296,372.873H47.083v-95.689h27.374c25.993,0,44.855,19.551,44.855,48.074
		C119.311,353.55,101.369,372.873,76.296,372.873"/>
	<path clip-path="url(#SVGID_2_)" fill="#FFFFFF" d="M512.881,244.52h-70.156v40.957c-5.956-26.362-28.301-40.957-63.255-40.957
		h-70.157v141.91l-59.806-141.91h-42.093l-69.467,161.016h42.094l11.733-29.67h70.384l11.501,29.67h35.654h8.052h32.894v-45.312
		h29.212c34.955,0,57.299-15.758,63.255-43.598v88.909h40.944v-45.312h29.212c41.176,0,64.869-21.856,64.869-59.578
		C577.75,264.763,554.057,244.52,512.881,244.52 M203.732,344.809l23.462-59.576l23.003,59.576H203.732z M377.399,328.018h-27.142
		v-51.297h27.142c17.943,0,28.291,8.512,28.291,25.305C405.69,319.049,395.342,328.018,377.399,328.018 M510.813,328.018h-27.145
		v-51.297h27.145c17.942,0,28.291,8.512,28.291,25.305C539.104,319.049,528.756,328.018,510.813,328.018"/>
	<path clip-path="url(#SVGID_2_)" fill="#FFFFFF" d="M412.131,529.808l-74.297-99.37h-36.114v65.142
		c-7.11-38.91-41.449-66.525-85.8-66.525c-41.507,0-74.326,24.252-84.011,59.591h44.107c7.659-15.299,22.994-25.316,40.364-25.316
		c24.842,0,44.624,20.473,44.624,47.614c0,27.145-19.782,48.075-44.624,48.075c-17.075,0-32.374-10.079-40.144-25.313H132.13
		c9.948,35.213,42.587,59.588,83.791,59.588c44.351,0,78.69-28.161,85.8-67.354v65.515h38.417v-99.139l74.065,99.139h36.112V430.438
		h-38.184V529.808z"/>
	<polygon clip-path="url(#SVGID_2_)" fill="#FFFFFF" points="578.898,462.639 578.898,430.438 459.52,430.438 459.52,591.453 
		500.463,591.453 500.463,532.104 572.688,532.104 572.688,499.905 500.463,499.905 500.463,462.639 	"/>
	<path clip-path="url(#SVGID_2_)" fill="#FFFFFF" d="M82.276,463.329c14.264,0,29.905,8.05,40.486,20.933l23.691-28.063
		c-16.101-16.562-40.942-27.145-64.865-27.145c-40.954,0-73.532,24.438-83.128,59.59h43.664
		C49.347,473.414,64.259,463.329,82.276,463.329"/>
	<path clip-path="url(#SVGID_2_)" fill="#FFFFFF" d="M82.276,557.408c-17.245,0-31.647-9.35-39.187-23.704H-1.32
		c9.72,35.152,41.358,59.589,81.527,59.589c23.693,0,49.225-11.732,66.478-29.44l-23.922-25.306
		C111.489,550.047,95.849,557.408,82.276,557.408"/>
	<rect x="6.238" y="505.158" clip-path="url(#SVGID_2_)" fill="#FFFFFF" width="6.91" height="21.655"/>
	<path clip-path="url(#SVGID_2_)" fill="#FFFFFF" d="M9.733,495.275c-2.128,0-3.657,1.525-3.657,3.656
		c0,2.17,1.529,3.694,3.657,3.694c2.129,0,3.657-1.524,3.657-3.694C13.39,496.801,11.862,495.275,9.733,495.275"/>
	<path clip-path="url(#SVGID_2_)" fill="#FFFFFF" d="M130.547,504.916c-6.583,0-11.132,3.757-11.772,9.607v-17.52h-6.951v11.008
		c-1.526-2.009-3.817-3.135-6.669-3.135c-4.498,0-7.863,2.474-9.257,6.517c-0.65-4.046-3.577-6.557-7.779-6.557
		c-3.213,0.04-5.705,1.325-7.233,3.859v-3.539h-6.949v8.124c-1.111-5.133-5.46-8.365-11.532-8.365
		c-5.414,0-9.452,2.542-11.071,6.696c-0.563-4.171-3.451-6.775-7.692-6.775c-3.575,0.04-6.227,1.688-7.633,4.901
		c-1.085-3.052-3.696-4.901-7.232-4.901c-3.174,0.04-5.665,1.325-7.15,3.897v-3.577h-6.911v21.656h6.911v-10.727
		c0-2.934,1.645-5.063,4.298-5.145c2.292,0,3.695,1.566,3.695,4.142v11.729h6.954v-10.727c0-2.934,1.607-5.063,4.216-5.145
		c2.292,0,3.737,1.566,3.737,4.142v11.729h6.912v-6.229c1.683,4.015,5.667,6.471,10.968,6.471c6.071,0,10.42-3.259,11.532-8.397
		v8.156h6.949v-11.45c0.284-2.568,1.89-4.378,4.42-4.378c2.331,0,3.817,1.566,3.817,4.099v11.729h6.912v-6.021
		c1.481,3.902,4.824,6.303,9.282,6.303c2.77,0,4.981-1.126,6.507-3.135v2.853h6.951v-9.402c0.64,5.854,5.188,9.644,11.772,9.644
		c7.072,0,11.811-4.418,11.811-11.088S137.619,504.916,130.547,504.916 M62.406,521.672c-2.894,0-4.861-2.25-4.861-5.623
		c0-3.336,1.967-5.626,4.861-5.626c2.852,0,4.823,2.29,4.823,5.626C67.229,519.422,65.258,521.672,62.406,521.672 M107.002,521.713
		c-2.891,0-4.822-2.331-4.861-5.664c0.039-3.336,1.97-5.626,4.861-5.626c2.894,0,4.822,2.29,4.822,5.626
		C111.824,519.382,109.896,521.713,107.002,521.713 M130.547,521.672c-2.893,0-4.862-2.25-4.862-5.623
		c0-3.336,1.969-5.626,4.862-5.626c2.852,0,4.822,2.29,4.822,5.626C135.369,519.422,133.398,521.672,130.547,521.672"/>
	<path clip-path="url(#SVGID_2_)" fill="#FFFFFF" d="M578.212,554.878c-11.273,0-19.094,7.821-19.094,19.091
		c0,11.5,7.82,19.324,19.094,19.324c11.272,0,19.321-7.824,19.321-19.324C597.533,562.699,589.484,554.878,578.212,554.878
		 M590.263,568.631c-0.112,1.409-0.246,2.784-0.398,4.124c-0.2,1.562-0.296,2.408-0.296,2.542c-0.043,0.526-0.066,0.923-0.066,1.188
		l0.032,0.494c0,0.33-0.009,0.495-0.032,0.495l-0.032,0.134c-0.175,1.911-0.286,3.044-0.329,3.396
		c-0.088,0.528-0.277,0.901-0.561,1.123c-0.048,0.045-0.178,0.039-0.398-0.016s-0.396-0.128-0.527-0.216
		c-1.23-0.902-1.813-2.277-1.748-4.123v-3.829v-1.751v-0.888l-0.427,0.757c-0.022,0.069-0.067,0.146-0.134,0.232
		c-0.068,0.087-0.109,0.155-0.135,0.196c-0.022,0.069-0.096,0.205-0.229,0.415c-0.137,0.21-0.232,0.379-0.298,0.509
		c-0.13,0.265-0.335,0.654-0.608,1.156c-0.279,0.509-0.481,0.881-0.612,1.121c-0.242,0.442-0.672,1.23-1.289,2.357
		c-0.612,1.136-1.088,2.012-1.416,2.624c-0.31,0.509-0.672,0.94-1.09,1.289c-0.461,0.375-1.087,0.499-1.878,0.379
		c-0.794-0.121-1.413-0.436-1.849-0.94c-0.97-1.119-1.563-2.408-1.783-3.86c-0.066-0.462-0.165-0.966-0.297-1.519
		c-0.023-0.088-0.051-0.213-0.083-0.379c-0.034-0.163-0.06-0.28-0.081-0.346l-0.267-1.188l-0.595,3.333
		c-0.086,0.484-0.225,1.282-0.41,2.392c-0.188,1.113-0.337,1.962-0.444,2.556c-0.022,0.156-0.064,0.389-0.117,0.694
		c-0.056,0.31-0.095,0.539-0.116,0.69c-0.221,1.367-0.407,2.391-0.56,3.072c-0.133,0.551-0.316,0.907-0.548,1.076
		c-0.228,0.161-0.607,0.22-1.136,0.177c-0.659-0.066-1.093-0.325-1.304-0.774c-0.209-0.453-0.347-1.142-0.413-2.063
		c-0.087-1.364-0.175-3.476-0.264-6.337c-0.02-0.281-0.042-0.719-0.064-1.3c-0.023-0.583-0.034-1.019-0.034-1.305
		c-0.064-2.641-0.384-4.762-0.956-6.368c-0.221-0.659-0.177-1.133,0.132-1.42c0.108-0.086,0.208-0.132,0.299-0.132
		c0.062,0,0.217,0.077,0.461,0.231c0.064,0.045,0.179,0.116,0.347,0.214c0.163,0.1,0.281,0.172,0.347,0.216
		c0.086,0.066,0.23,0.158,0.427,0.278c0.199,0.124,0.352,0.215,0.463,0.283c0.023,0,0.05,0.004,0.082,0.015
		c0.035,0.013,0.071,0.028,0.116,0.05c0.045,0.023,0.077,0.034,0.099,0.034l0.2,0.1l0.329,0.131v-0.296
		c0.021-0.112,0.041-0.287,0.063-0.528c0.023-0.241,0.036-0.419,0.036-0.528c0.041-0.462,0.133-1.221,0.263-2.276
		c0.152-1.076,0.329-1.979,0.526-2.707c0.067-0.327,0.245-0.539,0.529-0.626c0.531-0.221,1.143-0.122,1.849,0.299
		c1.031,0.611,1.781,1.401,2.243,2.358c0.463,0.959,0.824,2.149,1.089,3.578c0.131,0.792,0.373,2.267,0.728,4.421
		c0.082,0.532,0.216,1.298,0.395,2.312c0,0.021,0.043,0.12,0.13,0.296c0,0.023,0.023,0.066,0.069,0.131
		c0.041,0.067,0.072,0.122,0.1,0.167l0.23,0.363l0.193-0.363c0.18-0.331,0.441-0.804,0.793-1.419c0.88-1.564,1.453-2.586,1.717-3.07
		c0.067-0.11,0.155-0.266,0.266-0.477c0.108-0.21,0.195-0.356,0.264-0.444c0.921-1.739,1.415-2.673,1.485-2.808
		c0.22-0.46,0.451-0.967,0.693-1.519c0.241-0.547,0.499-1.148,0.773-1.796c0.276-0.648,0.487-1.158,0.64-1.535
		c0.093-0.175,0.219-0.444,0.386-0.809c0.162-0.361,0.277-0.632,0.345-0.81c0.021-0.061,0.042-0.13,0.064-0.196
		c0.021-0.065,0.044-0.138,0.066-0.214c0.021-0.077,0.043-0.135,0.063-0.183c0.093-0.331,0.222-0.628,0.399-0.891
		c0.219-0.351,0.683-0.416,1.385-0.196l0.1,0.031c0.684,0.202,1.292,0.666,1.831,1.402c0.536,0.738,0.809,1.493,0.809,2.261v1.387
		C590.335,566.52,590.326,567.642,590.263,568.631"/>
	<path clip-path="url(#SVGID_2_)" fill="#FFFFFF" d="M590.294,563.88c0-0.771-0.271-1.521-0.809-2.261
		c-0.538-0.736-1.148-1.204-1.831-1.401l-0.099-0.034c-0.705-0.218-1.167-0.154-1.386,0.198c-0.178,0.268-0.31,0.563-0.397,0.892
		c-0.02,0.045-0.044,0.104-0.065,0.183c-0.02,0.075-0.045,0.147-0.066,0.212c-0.022,0.065-0.041,0.137-0.063,0.197
		c-0.065,0.18-0.184,0.448-0.348,0.81c-0.167,0.362-0.291,0.633-0.38,0.809c-0.153,0.376-0.369,0.884-0.642,1.533
		c-0.276,0.648-0.535,1.252-0.776,1.797c-0.242,0.553-0.474,1.06-0.692,1.521c-0.068,0.134-0.563,1.067-1.485,2.806
		c-0.067,0.088-0.155,0.233-0.264,0.445c-0.11,0.207-0.198,0.366-0.268,0.479c-0.262,0.481-0.832,1.506-1.715,3.068
		c-0.352,0.615-0.613,1.088-0.793,1.418l-0.193,0.364l-0.231-0.364c-0.025-0.044-0.056-0.099-0.099-0.166
		c-0.049-0.063-0.07-0.107-0.07-0.13c-0.088-0.177-0.129-0.275-0.129-0.297c-0.179-1.013-0.311-1.783-0.395-2.311
		c-0.358-2.155-0.599-3.629-0.728-4.422c-0.264-1.429-0.628-2.619-1.088-3.58c-0.463-0.956-1.213-1.742-2.246-2.356
		c-0.704-0.421-1.32-0.52-1.844-0.297c-0.287,0.088-0.465,0.297-0.532,0.624c-0.195,0.727-0.374,1.627-0.525,2.704
		c-0.131,1.056-0.223,1.818-0.264,2.278c0,0.11-0.013,0.289-0.035,0.531c-0.021,0.24-0.044,0.416-0.064,0.524v0.3l-0.329-0.133
		l-0.2-0.1c-0.024,0-0.054-0.01-0.099-0.037c-0.043-0.019-0.081-0.035-0.116-0.045c-0.032-0.013-0.059-0.016-0.083-0.016
		c-0.11-0.069-0.263-0.159-0.462-0.284c-0.196-0.12-0.341-0.21-0.429-0.277c-0.065-0.045-0.182-0.117-0.345-0.217
		c-0.167-0.098-0.282-0.169-0.346-0.213c-0.245-0.154-0.399-0.23-0.462-0.23c-0.091,0-0.187,0.043-0.299,0.13
		c-0.309,0.287-0.354,0.761-0.131,1.422c0.571,1.604,0.892,3.726,0.955,6.367c0,0.285,0.011,0.721,0.036,1.305
		c0.021,0.581,0.043,1.018,0.062,1.303c0.09,2.858,0.178,4.967,0.265,6.333c0.066,0.922,0.203,1.61,0.412,2.062
		c0.211,0.451,0.646,0.712,1.304,0.777c0.528,0.042,0.908-0.015,1.14-0.178c0.228-0.169,0.411-0.527,0.547-1.079
		c0.149-0.679,0.336-1.702,0.557-3.066c0.023-0.153,0.061-0.385,0.118-0.693c0.051-0.304,0.093-0.537,0.112-0.692
		c0.114-0.594,0.259-1.447,0.449-2.558c0.184-1.109,0.322-1.91,0.408-2.392l0.596-3.331l0.263,1.186
		c0.022,0.066,0.051,0.182,0.084,0.347c0.032,0.163,0.061,0.292,0.083,0.38c0.132,0.553,0.229,1.057,0.298,1.518
		c0.22,1.452,0.812,2.741,1.782,3.863c0.438,0.502,1.055,0.816,1.848,0.938c0.792,0.12,1.418-0.005,1.877-0.378
		c0.42-0.35,0.783-0.781,1.092-1.289c0.328-0.616,0.803-1.489,1.417-2.625c0.613-1.129,1.046-1.916,1.289-2.355
		c0.13-0.244,0.336-0.618,0.611-1.124c0.271-0.505,0.477-0.891,0.61-1.155c0.062-0.129,0.163-0.303,0.294-0.508
		c0.135-0.211,0.21-0.347,0.23-0.415c0.025-0.043,0.067-0.11,0.135-0.197c0.063-0.087,0.11-0.164,0.133-0.23l0.428-0.759v0.888
		v1.751v3.826c-0.065,1.849,0.518,3.226,1.748,4.127c0.136,0.088,0.307,0.162,0.527,0.213c0.22,0.057,0.351,0.062,0.396,0.018
		c0.285-0.222,0.473-0.595,0.561-1.123c0.045-0.351,0.153-1.485,0.331-3.396l0.032-0.134c0.023,0,0.033-0.163,0.033-0.495
		l-0.033-0.494c0-0.265,0.023-0.657,0.064-1.188c0-0.133,0.103-0.979,0.298-2.542c0.154-1.338,0.284-2.714,0.399-4.122
		c0.062-0.99,0.073-2.11,0.03-3.368V563.88z"/>
</g>
</svg>
